<svg xmlns="http://www.w3.org/2000/svg" viewBox="0 0 32 40" x="0px" y="0px"><g><path d="M27,7H25.74744A2.88346,2.88346,0,0,0,23.376,5.06836L7.30518,3.09521a2.91381,2.91381,0,0,0-3.23682,2.5293L2.09521,21.69482a2.909,2.909,0,0,0,2.5293,3.23682L8,25.34613V26a3.00328,3.00328,0,0,0,3,3H23a.99928.99928,0,0,0,.707-.293l6-6A1.00012,1.00012,0,0,0,30,22V10A3.00328,3.00328,0,0,0,27,7ZM8,10V23.33075l-3.13135-.38446a.906.906,0,0,1-.78808-1.00781L6.05371,5.86865a.90632.90632,0,0,1,.89746-.79492.841.841,0,0,1,.11035.00684L22.6944,7H11A3.00328,3.00328,0,0,0,8,10ZM23.5462,20.04584a2.99045,2.99045,0,0,0-2.50036,2.50036,5,5,0,1,1,2.50036-2.50036ZM23,26.58594V23a1.001,1.001,0,0,1,1-1h3.58594ZM28,20H25.69885A7,7,0,1,0,21,24.69885V27H11a1.0013,1.0013,0,0,1-1-1V10a1.0013,1.0013,0,0,1,1-1H27a1.001,1.001,0,0,1,1,1Zm-6-3a1,1,0,0,1,0,2H20v2a1,1,0,0,1-2,0V19H16a1,1,0,0,1,0-2h2V15a1,1,0,0,1,2,0v2Z"/></g><text x="0" y="47" fill="#000000" font-size="5px" font-weight="bold" font-family="'Helvetica Neue', Helvetica, Arial-Unicode, Arial, Sans-serif">Created by Anconer Design</text><text x="0" y="52" fill="#000000" font-size="5px" font-weight="bold" font-family="'Helvetica Neue', Helvetica, Arial-Unicode, Arial, Sans-serif">from the Noun Project</text></svg>