<svg xmlns="http://www.w3.org/2000/svg" version="1.1" viewBox="-5.0 -10.0 110.0 135.0">
 <g>
  <path d="m85.586 31.285c-0.29688-2.2031-1.4336-4.1602-3.2109-5.5078s-3.9766-1.9219-6.1797-1.6133l-5.3633 0.73828v-1.9844c0-4.5977-3.7383-8.332-8.332-8.332h-14.879c-0.92969-3.582-4.168-6.25-8.0391-6.25-3.8711 0-7.1055 2.668-8.0391 6.25h-14.879c-4.5977 0-8.332 3.7383-8.332 8.332v45.832c0 4.5977 3.7383 8.332 8.332 8.332h12.559l1.0469 7.6406c0.58203 4.168 4.1758 7.2031 8.2773 7.2031 0.36719 0 0.73828-0.023437 1.1094-0.074219l45.008-6.1914c2.2031-0.30859 4.1562-1.4531 5.4961-3.2227 1.3477-1.7734 1.918-3.9648 1.6094-6.1641l-6.1875-44.992zm-46.004-18.785c2.2969 0 4.168 1.8672 4.168 4.168 0 2.2969-1.8672 4.168-4.168 4.168-2.2969 0-4.168-1.8672-4.168-4.168 0-2.2969 1.8672-4.168 4.168-4.168zm-27.082 56.25v-45.832c0-2.2969 1.8672-4.168 4.168-4.168h14.879c0.92969 3.582 4.168 6.25 8.0391 6.25 3.8711 0 7.1055-2.668 8.0391-6.25h14.879c2.2969 0 4.168 1.8672 4.168 4.168v35.418h-6.25c-4.5977 0-8.332 3.7383-8.332 8.332v6.25h-35.422c-2.2969 0-4.168-1.8672-4.168-4.168zm51.223-6.25-7.4727 7.4727v-3.3047c0-2.2969 1.8672-4.168 4.168-4.168zm23.121 17.426c-0.67188 0.88672-1.6523 1.4609-2.7539 1.6133l-44.992 6.1875c-2.2695 0.31641-4.3828-1.3008-4.6992-3.5742l-0.96875-7.0703h20.738c0.27344 0 0.54688-0.054687 0.79688-0.16016 0.25391-0.10547 0.48438-0.25781 0.67578-0.44922l14.582-14.582s0-0.003906 0.003906-0.003906c0.17578-0.17578 0.30078-0.37891 0.40234-0.59766 0.027344-0.0625 0.046875-0.12891 0.070313-0.19531 0.0625-0.17969 0.10156-0.35938 0.10938-0.55078 0.003906-0.046875 0.023437-0.082031 0.023437-0.12891v-31.309l5.9336-0.81641c1.1055-0.15234 2.1992 0.13281 3.0859 0.80469 0.88672 0.67188 1.4531 1.6445 1.6016 2.7461l6.1914 45.008c0.15234 1.0977-0.13281 2.1914-0.80078 3.0742z"/>
  <path d="m20.832 35.418h37.5c1.1484 0 2.082-0.93359 2.082-2.082 0-1.1484-0.93359-2.082-2.082-2.082l-37.5-0.003906c-1.1484 0-2.082 0.93359-2.082 2.082 0 1.1484 0.93359 2.082 2.082 2.082z"/>
  <path d="m20.832 47.918h37.5c1.1484 0 2.082-0.93359 2.082-2.082 0-1.1484-0.93359-2.082-2.082-2.082l-37.5-0.003906c-1.1484 0-2.082 0.93359-2.082 2.082 0 1.1484 0.93359 2.082 2.082 2.082z"/>
  <path d="m47.918 56.25h-27.082c-1.1484 0-2.082 0.93359-2.082 2.082 0 1.1484 0.93359 2.082 2.082 2.082h27.082c1.1484 0 2.082-0.93359 2.082-2.082 0-1.1484-0.93359-2.082-2.082-2.082z"/>
 </g>
<text x="0.0" y="117.5" font-size="5.0" font-weight="bold" font-family="Arbeit Regular, Helvetica, Arial-Unicode, Arial, Sans-serif" fill="#000000">Created by kumakamu</text><text x="0.0" y="122.5" font-size="5.0" font-weight="bold" font-family="Arbeit Regular, Helvetica, Arial-Unicode, Arial, Sans-serif" fill="#000000">from Noun Project</text></svg>